<?xml version="1.0" encoding="utf-8" standalone="no"?>
<!DOCTYPE svg PUBLIC "-//W3C//DTD SVG 1.1//EN"
  "http://www.w3.org/Graphics/SVG/1.1/DTD/svg11.dtd">
<svg xmlns:xlink="http://www.w3.org/1999/xlink" width="823.5pt" height="180.72pt" viewBox="0 0 823.5 180.72" xmlns="http://www.w3.org/2000/svg" version="1.1">
 <metadata>
  <rdf:RDF xmlns:dc="http://purl.org/dc/elements/1.1/" xmlns:cc="http://creativecommons.org/ns#" xmlns:rdf="http://www.w3.org/1999/02/22-rdf-syntax-ns#">
   <cc:Work>
    <dc:type rdf:resource="http://purl.org/dc/dcmitype/StillImage"/>
    <dc:date>2025-11-20T12:14:21.252928</dc:date>
    <dc:format>image/svg+xml</dc:format>
    <dc:creator>
     <cc:Agent>
      <dc:title>Matplotlib v3.10.1, https://matplotlib.org/</dc:title>
     </cc:Agent>
    </dc:creator>
   </cc:Work>
  </rdf:RDF>
 </metadata>
 <defs>
  <style type="text/css">*{stroke-linejoin: round; stroke-linecap: butt}</style>
 </defs>
 <g id="figure_1">
  <g id="patch_1">
   <path d="M 0 180.72 
L 823.5 180.72 
L 823.5 0 
L 0 0 
z
" style="fill: #ffffff"/>
  </g>
  <g id="axes_1">
   <g id="FillBetweenPolyCollection_1">
    <defs>
     <path id="m2cce4a7bdb" d="M 43.977273 -14.76 
L 43.977273 -47.160359 
L 58.988404 -45.318908 
L 73.999536 -43.507693 
L 89.010668 -41.756455 
L 104.0218 -40.093948 
L 119.032931 -38.547472 
L 134.044063 -37.14242 
L 149.055195 -35.901861 
L 164.066327 -34.846167 
L 179.077458 -33.992672 
L 194.08859 -33.355389 
L 209.099722 -32.944784 
L 224.110853 -32.767598 
L 239.121985 -32.826741 
L 254.133117 -33.121242 
L 269.144249 -33.646264 
L 284.15538 -34.393188 
L 299.166512 -35.349748 
L 314.177644 -36.500238 
L 329.188776 -37.825767 
L 344.199907 -39.30457 
L 359.211039 -40.912364 
L 374.222171 -42.622751 
L 389.233302 -44.407645 
L 404.244434 -46.237738 
L 419.255566 -48.082981 
L 434.266698 -49.913074 
L 449.277829 -51.697968 
L 464.288961 -53.408355 
L 479.300093 -55.016149 
L 494.311224 -56.494952 
L 509.322356 -57.820481 
L 524.333488 -58.970971 
L 539.34462 -59.927531 
L 554.355751 -60.674455 
L 569.366883 -61.199477 
L 584.378015 -61.493978 
L 599.389147 -61.553121 
L 614.400278 -61.375935 
L 629.41141 -60.96533 
L 644.422542 -60.328047 
L 659.433673 -59.474552 
L 674.444805 -58.418858 
L 689.455937 -57.178299 
L 704.467069 -55.773247 
L 719.4782 -54.226771 
L 734.489332 -52.564264 
L 749.500464 -50.813026 
L 764.511596 -49.001811 
L 779.522727 -47.160359 
L 779.522727 -14.76 
L 779.522727 -14.76 
L 764.511596 -14.76 
L 749.500464 -14.76 
L 734.489332 -14.76 
L 719.4782 -14.76 
L 704.467069 -14.76 
L 689.455937 -14.76 
L 674.444805 -14.76 
L 659.433673 -14.76 
L 644.422542 -14.76 
L 629.41141 -14.76 
L 614.400278 -14.76 
L 599.389147 -14.76 
L 584.378015 -14.76 
L 569.366883 -14.76 
L 554.355751 -14.76 
L 539.34462 -14.76 
L 524.333488 -14.76 
L 509.322356 -14.76 
L 494.311224 -14.76 
L 479.300093 -14.76 
L 464.288961 -14.76 
L 449.277829 -14.76 
L 434.266698 -14.76 
L 419.255566 -14.76 
L 404.244434 -14.76 
L 389.233302 -14.76 
L 374.222171 -14.76 
L 359.211039 -14.76 
L 344.199907 -14.76 
L 329.188776 -14.76 
L 314.177644 -14.76 
L 299.166512 -14.76 
L 284.15538 -14.76 
L 269.144249 -14.76 
L 254.133117 -14.76 
L 239.121985 -14.76 
L 224.110853 -14.76 
L 209.099722 -14.76 
L 194.08859 -14.76 
L 179.077458 -14.76 
L 164.066327 -14.76 
L 149.055195 -14.76 
L 134.044063 -14.76 
L 119.032931 -14.76 
L 104.0218 -14.76 
L 89.010668 -14.76 
L 73.999536 -14.76 
L 58.988404 -14.76 
L 43.977273 -14.76 
z
" style="stroke: #a52a2a; stroke-opacity: 0.5"/>
    </defs>
    <g clip-path="url(#p446f0f1d7f)">
     <use xlink:href="#m2cce4a7bdb" x="0" y="180.72" style="fill: #a52a2a; fill-opacity: 0.5; stroke: #a52a2a; stroke-opacity: 0.5"/>
    </g>
   </g>
   <g id="patch_2">
    <path d="M 119.032931 142.172528 
L 116.106289 138.932492 
L 118.974399 138.932492 
L 118.974399 47.158682 
L 119.091464 47.158682 
L 119.091464 138.932492 
L 121.959574 138.932492 
z
" clip-path="url(#p446f0f1d7f)" style="fill: #a52a2a; stroke: #a52a2a; stroke-linejoin: miter"/>
   </g>
   <g id="FillBetweenPolyCollection_2">
    <defs>
     <path id="m25ca7332d8" d="M 43.977273 -47.160359 
L 43.977273 -153.350309 
L 58.988404 -155.788151 
L 73.999536 -158.038367 
L 89.010668 -160.064008 
L 104.0218 -161.831814 
L 119.032931 -163.312756 
L 134.044063 -164.482518 
L 149.055195 -165.321892 
L 164.066327 -165.817097 
L 179.077458 -165.96 
L 194.08859 -165.748255 
L 209.099722 -165.18534 
L 224.110853 -164.280496 
L 239.121985 -163.048582 
L 254.133117 -161.509826 
L 269.144249 -159.689494 
L 284.15538 -157.617475 
L 299.166512 -155.327792 
L 314.177644 -152.858043 
L 329.188776 -150.248779 
L 344.199907 -147.542845 
L 359.211039 -144.784673 
L 374.222171 -142.019551 
L 389.233302 -139.292883 
L 404.244434 -136.649441 
L 419.255566 -134.132629 
L 434.266698 -131.783774 
L 449.277829 -129.641444 
L 464.288961 -127.740815 
L 479.300093 -126.113097 
L 494.311224 -124.785016 
L 509.322356 -123.77838 
L 524.333488 -123.109717 
L 539.34462 -122.790006 
L 554.355751 -122.824498 
L 569.366883 -123.212625 
L 584.378015 -123.948016 
L 599.389147 -125.018594 
L 614.400278 -126.406781 
L 629.41141 -128.089784 
L 644.422542 -130.039966 
L 659.433673 -132.225307 
L 674.444805 -134.609922 
L 689.455937 -137.154657 
L 704.467069 -139.817727 
L 719.4782 -142.555405 
L 734.489332 -145.322738 
L 749.500464 -148.074286 
L 764.511596 -150.76487 
L 779.522727 -153.350309 
L 779.522727 -47.160359 
L 779.522727 -47.160359 
L 764.511596 -49.001811 
L 749.500464 -50.813026 
L 734.489332 -52.564264 
L 719.4782 -54.226771 
L 704.467069 -55.773247 
L 689.455937 -57.178299 
L 674.444805 -58.418858 
L 659.433673 -59.474552 
L 644.422542 -60.328047 
L 629.41141 -60.96533 
L 614.400278 -61.375935 
L 599.389147 -61.553121 
L 584.378015 -61.493978 
L 569.366883 -61.199477 
L 554.355751 -60.674455 
L 539.34462 -59.927531 
L 524.333488 -58.970971 
L 509.322356 -57.820481 
L 494.311224 -56.494952 
L 479.300093 -55.016149 
L 464.288961 -53.408355 
L 449.277829 -51.697968 
L 434.266698 -49.913074 
L 419.255566 -48.082981 
L 404.244434 -46.237738 
L 389.233302 -44.407645 
L 374.222171 -42.622751 
L 359.211039 -40.912364 
L 344.199907 -39.30457 
L 329.188776 -37.825767 
L 314.177644 -36.500238 
L 299.166512 -35.349748 
L 284.15538 -34.393188 
L 269.144249 -33.646264 
L 254.133117 -33.121242 
L 239.121985 -32.826741 
L 224.110853 -32.767598 
L 209.099722 -32.944784 
L 194.08859 -33.355389 
L 179.077458 -33.992672 
L 164.066327 -34.846167 
L 149.055195 -35.901861 
L 134.044063 -37.14242 
L 119.032931 -38.547472 
L 104.0218 -40.093948 
L 89.010668 -41.756455 
L 73.999536 -43.507693 
L 58.988404 -45.318908 
L 43.977273 -47.160359 
z
" style="stroke: #0000ff; stroke-opacity: 0.1"/>
    </defs>
    <g clip-path="url(#p446f0f1d7f)">
     <use xlink:href="#m25ca7332d8" x="0" y="180.72" style="fill: #0000ff; fill-opacity: 0.1; stroke: #0000ff; stroke-opacity: 0.1"/>
    </g>
   </g>
   <g id="patch_3">
    <path d="M 194.08859 14.971745 
L 197.015232 18.211781 
L 194.147123 18.211781 
L 194.147123 47.158682 
L 194.030057 47.158682 
L 194.030057 18.211781 
L 191.161948 18.211781 
z
" clip-path="url(#p446f0f1d7f)" style="fill: #0000ff; stroke: #0000ff; stroke-linejoin: miter"/>
   </g>
   <g id="patch_4">
    <path d="M 269.144249 21.030506 
L 272.070891 24.270542 
L 269.202781 24.270542 
L 269.202781 47.158682 
L 269.085716 47.158682 
L 269.085716 24.270542 
L 266.217606 24.270542 
z
" clip-path="url(#p446f0f1d7f)" style="stroke: #000000; stroke-linejoin: miter"/>
   </g>
   <g id="patch_5">
    <path d="M 269.144249 147.073736 
L 266.217606 143.8337 
L 269.085716 143.8337 
L 269.085716 47.158682 
L 269.202781 47.158682 
L 269.202781 143.8337 
L 272.070891 143.8337 
z
" clip-path="url(#p446f0f1d7f)" style="stroke: #000000; stroke-linejoin: miter"/>
   </g>
   <g id="line2d_1">
    <path d="M 43.977273 47.158682 
L 58.988404 47.158682 
L 73.999536 47.158682 
L 89.010668 47.158682 
L 104.0218 47.158682 
L 119.032931 47.158682 
L 134.044063 47.158682 
L 149.055195 47.158682 
L 164.066327 47.158682 
L 179.077458 47.158682 
L 194.08859 47.158682 
L 209.099722 47.158682 
L 224.110853 47.158682 
L 239.121985 47.158682 
L 254.133117 47.158682 
L 269.144249 47.158682 
L 284.15538 47.158682 
L 299.166512 47.158682 
L 314.177644 47.158682 
L 329.188776 47.158682 
L 344.199907 47.158682 
L 359.211039 47.158682 
L 374.222171 47.158682 
L 389.233302 47.158682 
L 404.244434 47.158682 
L 419.255566 47.158682 
L 434.266698 47.158682 
L 449.277829 47.158682 
L 464.288961 47.158682 
L 479.300093 47.158682 
L 494.311224 47.158682 
L 509.322356 47.158682 
L 524.333488 47.158682 
L 539.34462 47.158682 
L 554.355751 47.158682 
L 569.366883 47.158682 
L 584.378015 47.158682 
L 599.389147 47.158682 
L 614.400278 47.158682 
L 629.41141 47.158682 
L 644.422542 47.158682 
L 659.433673 47.158682 
L 674.444805 47.158682 
L 689.455937 47.158682 
L 704.467069 47.158682 
L 719.4782 47.158682 
L 734.489332 47.158682 
L 749.500464 47.158682 
L 764.511596 47.158682 
L 779.522727 47.158682 
" clip-path="url(#p446f0f1d7f)" style="fill: none; stroke-dasharray: 5.55,2.4; stroke-dashoffset: 0; stroke: #000000; stroke-width: 1.5"/>
   </g>
   <g id="text_1">
    <!--  $b$ -->
    <g style="fill: #a52a2a" transform="translate(119.032931 98.972049) scale(0.1 -0.1)">
     <defs>
      <path id="DejaVuSans-20" transform="scale(0.015625)"/>
      <path id="DejaVuSans-Oblique-62" d="M 3169 2138 
Q 3169 2591 2961 2847 
Q 2753 3103 2388 3103 
Q 2122 3103 1889 2973 
Q 1656 2844 1484 2597 
Q 1303 2338 1198 1995 
Q 1094 1653 1094 1313 
Q 1094 881 1298 636 
Q 1503 391 1863 391 
Q 2134 391 2365 517 
Q 2597 644 2772 891 
Q 2950 1147 3059 1487 
Q 3169 1828 3169 2138 
z
M 1381 2969 
Q 1594 3256 1914 3420 
Q 2234 3584 2584 3584 
Q 3122 3584 3439 3221 
Q 3756 2859 3756 2241 
Q 3756 1734 3570 1259 
Q 3384 784 3041 416 
Q 2816 172 2522 40 
Q 2228 -91 1906 -91 
Q 1566 -91 1316 65 
Q 1066 222 909 531 
L 806 0 
L 231 0 
L 1178 4863 
L 1753 4863 
L 1381 2969 
z
" transform="scale(0.015625)"/>
     </defs>
     <use xlink:href="#DejaVuSans-20" transform="translate(0 0.015625)"/>
     <use xlink:href="#DejaVuSans-Oblique-62" transform="translate(31.787109 0.015625)"/>
    </g>
   </g>
   <g id="text_2">
    <!--  $\zeta$ -->
    <g style="fill: #0000ff" transform="translate(194.08859 36.571984) scale(0.1 -0.1)">
     <defs>
      <path id="DejaVuSans-Oblique-3b6" d="M 1966 397 
Q 2378 394 2578 159 
Q 2794 -88 2722 -463 
Q 2650 -822 2372 -1072 
Q 2069 -1344 1559 -1344 
Q 1606 -1109 1650 -872 
Q 1863 -888 2022 -750 
Q 2144 -641 2166 -525 
Q 2197 -359 2125 -222 
Q 2050 -91 1872 -91 
Q -22 -91 316 1669 
Q 616 3206 2609 4284 
L 947 4284 
L 1059 4863 
L 3778 4863 
L 3666 4284 
Q 1181 3147 894 1669 
Q 647 397 1966 397 
z
" transform="scale(0.015625)"/>
     </defs>
     <use xlink:href="#DejaVuSans-20" transform="translate(0 0.015625)"/>
     <use xlink:href="#DejaVuSans-Oblique-3b6" transform="translate(31.787109 0.015625)"/>
    </g>
   </g>
   <g id="text_3">
    <!--  $h$ -->
    <g transform="translate(269.144249 90.359161) scale(0.1 -0.1)">
     <defs>
      <path id="DejaVuSans-Oblique-68" d="M 3566 2113 
L 3156 0 
L 2578 0 
L 2988 2091 
Q 3016 2238 3031 2350 
Q 3047 2463 3047 2528 
Q 3047 2791 2881 2937 
Q 2716 3084 2419 3084 
Q 1956 3084 1617 2771 
Q 1278 2459 1178 1941 
L 800 0 
L 225 0 
L 1172 4863 
L 1747 4863 
L 1375 2950 
Q 1594 3244 1934 3414 
Q 2275 3584 2650 3584 
Q 3113 3584 3367 3334 
Q 3622 3084 3622 2631 
Q 3622 2519 3608 2391 
Q 3594 2263 3566 2113 
z
" transform="scale(0.015625)"/>
     </defs>
     <use xlink:href="#DejaVuSans-20" transform="translate(0 0.015625)"/>
     <use xlink:href="#DejaVuSans-Oblique-68" transform="translate(31.787109 0.015625)"/>
    </g>
   </g>
   <g id="legend_1">
    <g id="patch_6">
     <path d="M 379.6 113.888125 
L 443.9 113.888125 
Q 445.9 113.888125 445.9 111.888125 
L 445.9 68.831875 
Q 445.9 66.831875 443.9 66.831875 
L 379.6 66.831875 
Q 377.6 66.831875 377.6 68.831875 
L 377.6 111.888125 
Q 377.6 113.888125 379.6 113.888125 
z
" style="fill: #ffffff; opacity: 0.8; stroke: #cccccc; stroke-linejoin: miter"/>
    </g>
    <g id="patch_7">
     <path d="M 381.6 78.430313 
L 401.6 78.430313 
L 401.6 71.430313 
L 381.6 71.430313 
z
" style="fill: #a52a2a; fill-opacity: 0.5; stroke: #a52a2a; stroke-opacity: 0.5; stroke-linejoin: miter"/>
    </g>
    <g id="text_4">
     <!-- $z=-$$b$ -->
     <g transform="translate(409.6 78.430313) scale(0.1 -0.1)">
      <defs>
       <path id="DejaVuSans-Oblique-7a" d="M 744 3500 
L 3475 3500 
L 3372 2975 
L 738 459 
L 2913 459 
L 2822 0 
L -19 0 
L 84 525 
L 2719 3041 
L 653 3041 
L 744 3500 
z
" transform="scale(0.015625)"/>
       <path id="DejaVuSans-3d" d="M 678 2906 
L 4684 2906 
L 4684 2381 
L 678 2381 
L 678 2906 
z
M 678 1631 
L 4684 1631 
L 4684 1100 
L 678 1100 
L 678 1631 
z
" transform="scale(0.015625)"/>
       <path id="DejaVuSans-2212" d="M 678 2272 
L 4684 2272 
L 4684 1741 
L 678 1741 
L 678 2272 
z
" transform="scale(0.015625)"/>
      </defs>
      <use xlink:href="#DejaVuSans-Oblique-7a" transform="translate(0 0.015625)"/>
      <use xlink:href="#DejaVuSans-3d" transform="translate(71.972656 0.015625)"/>
      <use xlink:href="#DejaVuSans-2212" transform="translate(175.244141 0.015625)"/>
      <use xlink:href="#DejaVuSans-Oblique-62" transform="translate(259.033203 0.015625)"/>
     </g>
    </g>
    <g id="patch_8">
     <path d="M 381.6 93.11 
L 401.6 93.11 
L 401.6 86.11 
L 381.6 86.11 
z
" style="fill: #0000ff; fill-opacity: 0.1; stroke: #0000ff; stroke-opacity: 0.1; stroke-linejoin: miter"/>
    </g>
    <g id="text_5">
     <!-- $z=$$\zeta$ -->
     <g transform="translate(409.6 93.11) scale(0.1 -0.1)">
      <use xlink:href="#DejaVuSans-Oblique-7a" transform="translate(0 0.015625)"/>
      <use xlink:href="#DejaVuSans-3d" transform="translate(71.972656 0.015625)"/>
      <use xlink:href="#DejaVuSans-Oblique-3b6" transform="translate(175.244141 0.015625)"/>
     </g>
    </g>
    <g id="line2d_2">
     <path d="M 381.6 104.308438 
L 391.6 104.308438 
L 401.6 104.308438 
" style="fill: none; stroke-dasharray: 5.55,2.4; stroke-dashoffset: 0; stroke: #000000; stroke-width: 1.5"/>
    </g>
    <g id="text_6">
     <!-- $z=0$ -->
     <g transform="translate(409.6 107.808438) scale(0.1 -0.1)">
      <defs>
       <path id="DejaVuSans-30" d="M 2034 4250 
Q 1547 4250 1301 3770 
Q 1056 3291 1056 2328 
Q 1056 1369 1301 889 
Q 1547 409 2034 409 
Q 2525 409 2770 889 
Q 3016 1369 3016 2328 
Q 3016 3291 2770 3770 
Q 2525 4250 2034 4250 
z
M 2034 4750 
Q 2819 4750 3233 4129 
Q 3647 3509 3647 2328 
Q 3647 1150 3233 529 
Q 2819 -91 2034 -91 
Q 1250 -91 836 529 
Q 422 1150 422 2328 
Q 422 3509 836 4129 
Q 1250 4750 2034 4750 
z
" transform="scale(0.015625)"/>
      </defs>
      <use xlink:href="#DejaVuSans-Oblique-7a" transform="translate(0 0.78125)"/>
      <use xlink:href="#DejaVuSans-3d" transform="translate(71.972656 0.78125)"/>
      <use xlink:href="#DejaVuSans-30" transform="translate(175.244141 0.78125)"/>
     </g>
    </g>
   </g>
  </g>
 </g>
 <defs>
  <clipPath id="p446f0f1d7f">
   <rect x="7.2" y="7.2" width="809.1" height="166.32"/>
  </clipPath>
 </defs>
</svg>
